<?xml version="1.0" encoding="UTF-8"?>
<svg id="Layer_1" data-name="Layer 1" xmlns="http://www.w3.org/2000/svg" width="2000" height="2000" viewBox="0 0 2000 2000">
  <defs>
    <style>
      .cls-1 {
        fill: #ea302c;
      }

      .cls-1, .cls-2 {
        stroke: #f0be31;
        stroke-width: 17.33px;
      }

      .cls-2 {
        fill: #fbce2f;
      }
    </style>
  </defs>
  <g>
    <g>
      <path class="cls-2" d="M804.75,1163.25l66.87,38.61-180.22,312.15-66.87-38.61c-.07-82.97-43.15-163.65-120.18-208.12-76.98-44.45-168.35-41.45-240.23-.08-50.58-31.61-67.41-97.84-37.35-149.91l68.97-119.45c30.06-52.07,95.83-70.61,148.5-42.61.11,82.94,43.2,163.56,120.18,208.01,77.03,44.47,168.43,41.44,240.32.02Z"/>
      <path class="cls-2" d="M1789.1,1454.1c-4.82,60.28-22.8,120.46-55.05,176.32-10.2,17.66-21.48,34.3-33.72,49.9-127.14,161.92-357.23,209.95-540.71,104.02l-468.22-270.33,180.22-312.15,468.22,270.33c145.28,83.88,319.78,71.21,449.26-18.08Z"/>
      <circle class="cls-2" cx="365.31" cy="1117.64" r="60.07"/>
      <circle class="cls-2" cx="690.46" cy="1305.37" r="60.07"/>
    </g>
    <g>
      <path class="cls-2" d="M1196.2,1163.25l-66.87,38.61,180.22,312.15,66.87-38.61c.07-82.97,43.15-163.65,120.18-208.12,76.98-44.45,168.35-41.45,240.23-.08,50.58-31.61,67.41-97.84,37.35-149.91l-68.97-119.45c-30.06-52.07-95.83-70.61-148.5-42.61-.11,82.94-43.2,163.56-120.18,208.01-77.03,44.47-168.43,41.44-240.32.02Z"/>
      <path class="cls-2" d="M211.86,1454.1c4.82,60.28,22.8,120.46,55.05,176.32,10.2,17.66,21.48,34.3,33.72,49.9,127.14,161.92,357.23,209.95,540.71,104.02l468.22-270.33-180.22-312.15-468.22,270.33c-145.28,83.88-319.78,71.21-449.26-18.08Z"/>
      <circle class="cls-2" cx="1635.64" cy="1117.64" r="60.07"/>
      <circle class="cls-2" cx="1310.49" cy="1305.37" r="60.07"/>
    </g>
  </g>
  <polygon class="cls-1" points="998.14 144.97 1125.96 538.35 1539.59 538.35 1204.95 781.48 1332.77 1174.87 998.14 931.74 663.5 1174.87 791.32 781.48 456.69 538.35 870.32 538.35 998.14 144.97"/>
</svg>